<svg width="19" height="21" viewBox="0 0 19 21" fill="none" xmlns="http://www.w3.org/2000/svg">
<path d="M9.43945 2.5C7.23031 2.5 5.43945 4.29086 5.43945 6.5C5.43945 8.70914 7.23031 10.5 9.43945 10.5C11.6486 10.5 13.4395 8.70914 13.4395 6.5C13.4395 4.29086 11.6486 2.5 9.43945 2.5ZM3.43945 6.5C3.43945 3.18629 6.12574 0.5 9.43945 0.5C12.7532 0.5 15.4395 3.18629 15.4395 6.5C15.4395 9.81371 12.7532 12.5 9.43945 12.5C6.12574 12.5 3.43945 9.81371 3.43945 6.5ZM5.43945 16.5C3.7826 16.5 2.43945 17.8431 2.43945 19.5C2.43945 20.0523 1.99174 20.5 1.43945 20.5C0.887168 20.5 0.439453 20.0523 0.439453 19.5C0.439453 16.7386 2.67803 14.5 5.43945 14.5H13.4395C16.2009 14.5 18.4395 16.7386 18.4395 19.5C18.4395 20.0523 17.9917 20.5 17.4395 20.5C16.8872 20.5 16.4395 20.0523 16.4395 19.5C16.4395 17.8431 15.0963 16.5 13.4395 16.5H5.43945Z" fill="white"/>
</svg>
