<svg width="21" height="21" viewBox="0 0 21 21" fill="none" xmlns="http://www.w3.org/2000/svg">
<path d="M8.25 2.5C4.93629 2.5 2.25 5.18629 2.25 8.5C2.25 11.8137 4.93629 14.5 8.25 14.5C11.5637 14.5 14.25 11.8137 14.25 8.5C14.25 5.18629 11.5637 2.5 8.25 2.5ZM0.25 8.5C0.25 4.08172 3.83172 0.5 8.25 0.5C12.6683 0.5 16.25 4.08172 16.25 8.5C16.25 10.3487 15.6229 12.051 14.5699 13.4056L19.9571 18.7929C20.3476 19.1834 20.3476 19.8166 19.9571 20.2071C19.5666 20.5976 18.9334 20.5976 18.5429 20.2071L13.1556 14.8199C11.801 15.8729 10.0987 16.5 8.25 16.5C3.83172 16.5 0.25 12.9183 0.25 8.5Z" fill="white"/>
</svg>
