<svg width="18" height="21" viewBox="0 0 18 21" fill="none" xmlns="http://www.w3.org/2000/svg">
<path d="M7.14614 1.74812C7.4433 1.01616 8.16138 0.5 9 0.5C9.83863 0.5 10.5567 1.01616 10.8539 1.74812C13.8202 2.56072 16 5.27579 16 8.5V13.1972L17.8321 15.9453C18.0366 16.2522 18.0557 16.6467 17.8817 16.9719C17.7077 17.297 17.3688 17.5 17 17.5H12.4646C12.2219 19.1961 10.7632 20.5 9 20.5C7.23677 20.5 5.77806 19.1961 5.53545 17.5H1C0.631206 17.5 0.292346 17.297 0.118327 16.9719C-0.0556921 16.6467 -0.0366195 16.2522 0.167951 15.9453L2 13.1972V8.5C2 5.27579 4.17983 2.56072 7.14614 1.74812ZM7.58535 17.5C7.79127 18.0826 8.34689 18.5 9 18.5C9.65311 18.5 10.2087 18.0826 10.4146 17.5H7.58535ZM9 3.5C6.23858 3.5 4 5.73858 4 8.5V13.5C4 13.6974 3.94156 13.8904 3.83205 14.0547L2.86852 15.5H15.1315L14.168 14.0547C14.0584 13.8904 14 13.6974 14 13.5V8.5C14 5.73858 11.7614 3.5 9 3.5Z" fill="white"/>
</svg>
