<svg width="20" height="20" viewBox="0 0 20 20" fill="none" xmlns="http://www.w3.org/2000/svg">
<path fill-rule="evenodd" clip-rule="evenodd" d="M19.1 10C19.1 15.2743 14.8243 19.55 9.55001 19.55C4.27569 19.55 0 15.2743 0 10C0 4.7257 4.27569 0.450012 9.55001 0.450012C14.8243 0.450012 19.1 4.7257 19.1 10ZM9.55001 17.75C13.8302 17.75 17.3 14.2802 17.3 10C17.3 5.71981 13.8302 2.25001 9.55001 2.25001C5.2698 2.25001 1.8 5.71981 1.8 10C1.8 14.2802 5.2698 17.75 9.55001 17.75Z" fill="white"/>
<path d="M8.63438 7.9732L8.64835 7.87966L8.55574 7.8605C8.38395 7.82496 8.19201 7.80759 7.98055 7.80759C7.6696 7.80759 7.38328 7.89553 7.12402 8.07038C6.92561 8.20419 6.75113 8.38039 6.59991 8.59718L6.54242 7.983L6.53394 7.89231H6.44286H5.86252H5.76252V7.99231V12.635V12.735H5.86252H6.56571H6.66571V12.635V10.1442C6.66571 9.71058 6.79164 9.35505 7.03916 9.07058C7.29017 8.78532 7.58549 8.64724 7.92972 8.64724C8.06736 8.64724 8.22933 8.66714 8.41651 8.70843L8.52113 8.73151L8.53695 8.62555L8.63438 7.9732ZM10.1647 7.99231V7.89231H10.0647H9.35304H9.25304V7.99231V11.0296C9.25304 11.633 9.39568 12.0944 9.70317 12.3895L9.70354 12.3898C10.0114 12.6824 10.4643 12.8198 11.0432 12.8198C11.3833 12.8198 11.6892 12.7567 11.9588 12.6279C12.1706 12.5278 12.3476 12.3927 12.4885 12.2225L12.5585 12.6512L12.5722 12.735H12.6572H13.2375H13.3375V12.635V7.99231V7.89231H13.2375H12.5343H12.4343V7.99231V10.4323C12.4343 11.0258 12.322 11.4297 12.1193 11.668L12.1189 11.6684C11.9215 11.9033 11.6007 12.031 11.1322 12.031C10.7803 12.031 10.5427 11.9417 10.3965 11.7835C10.2481 11.6229 10.1647 11.3695 10.1647 11.0042V7.99231Z" fill="#50E3C2" stroke="#50E3C2" stroke-width="0.2"/>
</svg>
